<svg width="83" height="83" xmlns="http://www.w3.org/2000/svg"><path fill="#F7D54D" d="M82.85 41.43l-11.7 3.35 10.67 5.86-12.16.67 9.1 8.1-12-2.07 7.05 9.92-11.24-4.68 4.69 11.23-9.92-7.05 2.07 12-8.1-9.1-.67 12.16-5.86-10.67-3.35 11.7-3.36-11.7-5.86 10.67-.66-12.16-8.11 9.1 2.08-12-9.93 7.05 4.69-11.24-11.24 4.69 7.06-9.92-12 2.07 9.09-8.1-12.16-.67 10.68-5.86L0 41.43l11.71-3.36-10.68-5.86 12.16-.66-9.09-8.11 12 2.08-7.06-9.93 11.24 4.69L15.6 9.04l9.92 7.06-2.07-12 8.1 9.09.66-12.16 5.86 10.68L41.43 0l3.35 11.71 5.86-10.68.67 12.16 8.1-9.09-2.07 12 9.92-7.06-4.68 11.24 11.23-4.68-7.05 9.92 12-2.07-9.1 8.1 12.16.66-10.67 5.86 11.7 3.36z"/></svg>