<svg width="36" height="72" xmlns="http://www.w3.org/2000/svg"><g fill="none" fill-rule="evenodd"><path d="M0 0h23.18c4.458 0 6.075.464 7.704 1.336a9.086 9.086 0 0 1 3.78 3.78C35.536 6.746 36 8.362 36 12.819v10.362c0 4.457-.464 6.074-1.336 7.703a9.086 9.086 0 0 1-3.78 3.78c-1.63.872-3.246 1.336-7.703 1.336H0V0zm0 36h23.18c4.458 0 6.075.464 7.704 1.336a9.086 9.086 0 0 1 3.78 3.78c.872 1.63 1.336 3.246 1.336 7.703v10.362c0 4.457-.464 6.074-1.336 7.703a9.086 9.086 0 0 1-3.78 3.78c-1.63.872-3.246 1.336-7.703 1.336H0V36z" fill="#2692C9"/><path fill="#FFF" d="M18 22l-4-8h8zm0 28l4 8h-8z"/></g></svg>